<?xml version="1.0" encoding="UTF-8" standalone="no"?>
<!-- Svg Vector Icons : http://www.onlinewebfonts.com/icon -->

<svg
   xmlns:dc="http://purl.org/dc/elements/1.1/"
   xmlns:cc="http://creativecommons.org/ns#"
   xmlns:rdf="http://www.w3.org/1999/02/22-rdf-syntax-ns#"
   xmlns:svg="http://www.w3.org/2000/svg"
   xmlns="http://www.w3.org/2000/svg"
   xmlns:sodipodi="http://sodipodi.sourceforge.net/DTD/sodipodi-0.dtd"
   xmlns:inkscape="http://www.inkscape.org/namespaces/inkscape"
   version="1.1"
   x="0px"
   y="0px"
   viewBox="0 0 918.80145 633.74628"
   enable-background="new 0 0 1000 1000"
   xml:space="preserve"
   id="svg40"
   sodipodi:docname="cannon.svg"
   width="918.80145"
   height="633.74628"
   inkscape:version="0.92.2 5c3e80d, 2017-08-06"><defs
     id="defs44" /><sodipodi:namedview
     pagecolor="#ffffff"
     bordercolor="#666666"
     borderopacity="1"
     objecttolerance="10"
     gridtolerance="10"
     guidetolerance="10"
     inkscape:pageopacity="0"
     inkscape:pageshadow="2"
     inkscape:window-width="1598"
     inkscape:window-height="879"
     id="namedview42"
     showgrid="false"
     fit-margin-top="0"
     fit-margin-left="0"
     fit-margin-right="0"
     fit-margin-bottom="0"
     inkscape:zoom="0.6675088"
     inkscape:cx="130.7836"
     inkscape:cy="282.58498"
     inkscape:window-x="0"
     inkscape:window-y="19"
     inkscape:window-maximized="0"
     inkscape:current-layer="svg40" /><metadata
     id="metadata2"> Svg Vector Icons : http://www.onlinewebfonts.com/icon (https://www.onlinewebfonts.com/icon/7548) <rdf:RDF><cc:Work
     rdf:about=""><dc:format>image/svg+xml</dc:format><dc:type
       rdf:resource="http://purl.org/dc/dcmitype/StillImage" /><dc:title /></cc:Work></rdf:RDF></metadata><g
     id="g6"
     transform="rotate(19.390922,833.5149,180.38174)"
     style="fill:#000000"><path
       inkscape:connector-curvature="0"
       id="path4"
       d="m 975.5,392.3 c -9.7,3.4 -19.8,-0.6 -25.2,-8.7 L 568.2,579.1 C 554.6,556 534.3,536.7 508.3,524.3 491.1,516.1 473,511.7 455,510.8 L 395.3,342 898.1,236.5 c -1.5,-10.1 4,-20.1 13.8,-23.7 11.4,-4 24,2 28,13.3 l 48.8,138.3 c 4.1,11.4 -2,23.9 -13.2,27.9 z M 432.3,511.6 374,346.5 l -4.8,1 c -60.7,-1.6 -119.8,31.7 -147.6,90.1 -16.9,35.4 -19.4,73.9 -10,109.1 C 161.2,537.6 125.4,515.8 105.3,481.9 65.7,415.5 97.8,323 98.1,322 L 77,314.5 c -1.4,4.2 -35.9,103.1 8.8,178.8 14.8,25 36.6,44.4 64.8,57.9 18.2,8.7 39.1,14.9 62.6,18.7 l 1.8,-11.1 c 13.6,38.4 41.7,71.4 81.2,90.3 3.8,1.8 7.7,3.4 11.7,4.9 -0.5,-21.4 3.6,-43.2 13.4,-63.7 21.7,-45.2 64.5,-73.4 111,-78.7 z M 10,351.2 H 56.2 V 328.8 H 10 Z M 41,268.1 25.2,284 57.9,316.6 73.7,300.8 Z M 109.7,253 H 87.3 v 46.2 h 22.4 V 253 Z m 13.4,76.5 32.7,-32.7 L 140,281 107.3,313.7 Z m 458.1,326.7 c 0,72.8 -59.3,132.2 -132.2,132.2 -72.9,0 -132.3,-59.3 -132.3,-132.2 0,-73.1 59.3,-132.3 132.3,-132.3 73,0 132.2,59.3 132.2,132.3 z m -84.6,0 c 0,-26.3 -21.4,-47.6 -47.6,-47.6 -26.2,0 -47.6,21.3 -47.6,47.6 0,26.2 21.4,47.5 47.6,47.5 26.2,0.1 47.6,-21.3 47.6,-47.5 z"
       style="fill:#000000" /></g></svg>