<?xml version="1.0" encoding="UTF-8" standalone="no"?>
<!--
   ***************************************************************************
   Bundesanstalt fuer Strassenwesen
   RWBA-Symbol
   Bezeichnung:
   Personenkraftwagen
   Ausdehnung in cm:
         X_min     X_max     Y_min     Y_max
         0.00000  15.00000   0.00000  15.00000
-->

<svg
   xmlns:dc="http://purl.org/dc/elements/1.1/"
   xmlns:cc="http://creativecommons.org/ns#"
   xmlns:rdf="http://www.w3.org/1999/02/22-rdf-syntax-ns#"
   xmlns:svg="http://www.w3.org/2000/svg"
   xmlns="http://www.w3.org/2000/svg"
   xmlns:sodipodi="http://sodipodi.sourceforge.net/DTD/sodipodi-0.dtd"
   xmlns:inkscape="http://www.inkscape.org/namespaces/inkscape"
   width="157.20499"
   height="50"
   version="1.1"
   id="svg2"
   inkscape:version="0.48.4 r9939"
   sodipodi:docname="car.svg">
  <metadata
     id="metadata12">
    <rdf:RDF>
      <cc:Work
         rdf:about="">
        <dc:format>image/svg+xml</dc:format>
        <dc:type
           rdf:resource="http://purl.org/dc/dcmitype/StillImage" />
      </cc:Work>
    </rdf:RDF>
  </metadata>
  <defs
     id="defs10">
    <inkscape:path-effect
       effect="spiro"
       id="path-effect3019"
       is_visible="true" />
  </defs>
  <sodipodi:namedview
     pagecolor="#ffffff"
     bordercolor="#666666"
     borderopacity="1"
     objecttolerance="10"
     gridtolerance="10"
     guidetolerance="10"
     inkscape:pageopacity="0"
     inkscape:pageshadow="2"
     inkscape:window-width="1366"
     inkscape:window-height="692"
     id="namedview8"
     showgrid="false"
     fit-margin-top="0"
     fit-margin-left="0"
     fit-margin-right="0"
     fit-margin-bottom="0"
     inkscape:zoom="4.4500586"
     inkscape:cx="113.21433"
     inkscape:cy="36.400836"
     inkscape:window-x="0"
     inkscape:window-y="24"
     inkscape:window-maximized="1"
     inkscape:current-layer="svg2" />
  <!--
   ***************************************************************************
-->
  <!--
      * SYMBOL PKW *
-->
  <path
     d="m 125.95498,40 a 10,10 0 0 1 15,-8.660254 10,10 0 0 1 0,17.320508 10,10 0 0 1 -15,-8.660254 z m -88.749998,0 a 10,10 0 0 1 15,-8.660254 10,10 0 0 1 0,17.320508 10,10 0 0 1 -15,-8.660254 m 111.249998,0 6.25,0 a 2.5,2.5 0 0 0 2.5,-2.5 l 0,-11.6322 a 2.5,2.5 0 0 0 -2.089,-2.465985 L 119.70498,17.5 102.93725,0.732233 A 2.5,2.5 0 0 0 101.16948,0 L 53.081982,0 a 2.5,2.5 0 0 0 -1.561738,0.547828 l -23.377,18.7016 A 2.5,2.5 0 0 0 27.204982,21.2016 l 0,16.2984 a 2.5,2.5 0 0 0 2.5,2.5 l 5,0 a 12.5,12.5 0 0 1 18.75,-10.825318 12.5,12.5 0 0 1 6.25,10.825318 l 63.749998,0 a 12.5,12.5 0 0 1 18.75,-10.825318 A 12.5,12.5 0 0 1 148.45498,40 z M 79.704982,20 114.18718,20 a 1.25,1.25 0 0 0 1.08253,-1.875 1.25,1.25 0 0 0 -0.19864,-0.258883 L 102.93725,5.732233 A 2.5,2.5 0 0 0 101.16948,5 l -21.464498,0 0,15 z m -3.75,0 0,-15 -17.7144,0 a 2.5,2.5 0 0 0 -1.767767,0.732233 l -10,10 A 2.5,2.5 0 0 0 47.593534,19.914815 2.5,2.5 0 0 0 48.240582,20 l 27.7144,0 z"
     id="path6"
     inkscape:connector-curvature="0"
     style="fill:#000000;fill-rule:evenodd;stroke:none" />
  <!--
       * RAEDER *
       * AEUSSERE UMRANDUNG *
       * FENSTER VORNE *
       * FENSTER HINTEN *
-->
  <g
     id="g3004"
     transform="matrix(0.47398039,0,0,0.47398039,-0.43822965,7.8820838)"
     style="fill:#000000;fill-opacity:1">
    <path
       d="m 28.512,69.471 c -0.344,0 -0.695,-0.024 -1.047,-0.074 -2.233,-0.314 -4.304,-1.596 -5.684,-3.517 -2.451,-3.407 -1.586,-8.172 1.97,-10.844 0.573,-0.429 1.386,-0.315 1.817,0.258 0.429,0.572 0.314,1.386 -0.259,1.817 -2.417,1.815 -3.042,5.003 -1.421,7.256 0.968,1.347 2.404,2.244 3.939,2.461 1.191,0.165 2.314,-0.105 3.157,-0.771 0.47,-0.368 0.847,-0.838 1.125,-1.396 0.319,-0.644 1.097,-0.904 1.738,-0.586 0.642,0.318 0.904,1.098 0.585,1.738 -0.45,0.908 -1.071,1.676 -1.844,2.282 -1.142,0.902 -2.561,1.376 -4.076,1.376 l 0,0 z"
       id="path6-3"
       inkscape:connector-curvature="0"
       style="fill:#000000;fill-opacity:1" />
    <path
       d="m 39.879,65.176 c -0.356,-0.62 -1.148,-0.835 -1.771,-0.479 -0.621,0.356 -0.836,1.15 -0.479,1.772 1.695,2.952 0.987,5.689 -0.242,7.269 -1.429,1.838 -3.765,2.573 -6.091,1.921 -1.428,-0.4 -3.251,-1.672 -3.694,-2.929 -0.155,-0.44 -0.536,-0.764 -0.996,-0.846 -0.46,-0.086 -0.93,0.09 -1.228,0.451 -1.956,2.363 -4.643,3.721 -7.175,3.676 -1.861,-0.047 -3.432,-0.857 -4.542,-2.348 -3.053,-4.084 -0.043,-8.113 2.021,-10.151 0.165,-0.164 0.284,-0.281 0.388,-0.493 0.188,-0.384 0.172,-0.837 -0.04,-1.21 -0.213,-0.372 -0.594,-0.615 -1.021,-0.65 C 12.579,60.96 10.578,59.913 9.52,58.286 8.621,56.903 8.48,55.213 9.112,53.397 c 0.688,-1.971 1.893,-3.289 3.583,-3.922 1.681,-0.628 3.525,-0.412 4.477,0.133 0.043,0.024 0.091,0.025 0.135,0.044 -0.367,1.675 -0.289,3.45 0.275,5.119 0.182,0.541 0.688,0.882 1.229,0.882 0.139,0 0.278,-0.021 0.416,-0.068 0.679,-0.229 1.042,-0.965 0.813,-1.645 -0.603,-1.783 -0.449,-3.812 0.413,-5.427 0.551,-1.031 1.641,-2.379 3.708,-2.939 2.329,-0.629 5.232,0.089 7.063,1.753 1.159,1.055 2.428,2.964 1.895,6.067 -0.122,0.707 0.352,1.378 1.058,1.499 0.719,0.125 1.377,-0.354 1.499,-1.058 0.573,-3.327 -0.389,-6.32 -2.706,-8.428 -2.49,-2.264 -6.301,-3.206 -9.488,-2.337 -2.285,0.618 -4.156,2.095 -5.28,4.158 -1.513,-0.754 -3.996,-1.089 -6.417,-0.184 -1.681,0.629 -3.933,2.094 -5.122,5.496 -0.402,1.152 -0.562,2.297 -0.508,3.397 -2.223,0.831 -3.987,2.612 -4.779,4.895 -0.707,2.036 -0.58,4.217 0.356,6.143 0.921,1.895 2.52,3.312 4.504,3.997 0.834,0.285 1.691,0.428 2.55,0.428 0.367,0 0.733,-0.035 1.098,-0.087 0.228,1.35 0.774,2.663 1.699,3.902 1.581,2.118 3.909,3.322 6.557,3.389 0.076,0.002 0.152,0.002 0.229,0.002 2.731,0 5.532,-1.206 7.781,-3.312 1.149,1.388 2.913,2.432 4.446,2.861 3.358,0.941 6.747,-0.141 8.838,-2.826 2.228,-2.859 2.398,-6.75 0.445,-10.153 z M 9.88,68.674 C 8.948,68.872 7.993,68.831 7.081,68.519 5.755,68.062 4.684,67.112 4.066,65.841 3.434,64.54 3.349,63.065 3.828,61.685 4.326,60.252 5.385,59.112 6.73,58.502 c 0.172,0.413 0.37,0.816 0.618,1.197 1.108,1.705 2.881,2.955 5.038,3.597 -1.411,1.771 -2.228,3.587 -2.506,5.378 z"
       id="path8"
       inkscape:connector-curvature="0"
       style="fill:#000000;fill-opacity:1" />
  </g>
  <path
     style="fill:#000000;fill-opacity:1;stroke:none"
     d="m 27.204982,34.887839 -5.393187,0 0,2.865131 5.449366,0 -0.05618,-2.865131"
     id="path3017"
     inkscape:path-effect="#path-effect3019"
     inkscape:original-d="m 27.204982,34.887839 -5.393187,0 0,2.865131 5.449366,0 z"
     inkscape:connector-curvature="0" />
</svg>
