<?xml version="1.0" encoding="UTF-8" standalone="no"?>
<!-- Created with Inkscape (http://www.inkscape.org/) -->

<svg
   xmlns:dc="http://purl.org/dc/elements/1.1/"
   xmlns:cc="http://creativecommons.org/ns#"
   xmlns:rdf="http://www.w3.org/1999/02/22-rdf-syntax-ns#"
   xmlns:svg="http://www.w3.org/2000/svg"
   xmlns="http://www.w3.org/2000/svg"
   xmlns:sodipodi="http://sodipodi.sourceforge.net/DTD/sodipodi-0.dtd"
   xmlns:inkscape="http://www.inkscape.org/namespaces/inkscape"
   width="803.78125"
   height="562.87048"
   id="svg2"
   version="1.1"
   inkscape:version="0.48.4 r9939"
   sodipodi:docname="chairs.svg">
  <defs
     id="defs4">
    <inkscape:path-effect
       effect="spiro"
       id="path-effect3909"
       is_visible="true" />
    <inkscape:path-effect
       effect="spiro"
       id="path-effect3905"
       is_visible="true" />
    <inkscape:path-effect
       effect="spiro"
       id="path-effect3834"
       is_visible="true" />
    <inkscape:path-effect
       effect="spiro"
       id="path-effect3830"
       is_visible="true" />
    <inkscape:path-effect
       effect="spiro"
       id="path-effect3822"
       is_visible="true" />
    <inkscape:path-effect
       effect="spiro"
       id="path-effect3795"
       is_visible="true" />
    <inkscape:path-effect
       effect="spiro"
       id="path-effect3762"
       is_visible="true" />
    <inkscape:path-effect
       effect="spiro"
       id="path-effect2990"
       is_visible="true" />
    <inkscape:path-effect
       effect="spiro"
       id="path-effect3762-3"
       is_visible="true" />
    <inkscape:path-effect
       effect="spiro"
       id="path-effect3905-6"
       is_visible="true" />
    <inkscape:path-effect
       effect="spiro"
       id="path-effect3834-2"
       is_visible="true" />
    <inkscape:path-effect
       effect="spiro"
       id="path-effect3830-9"
       is_visible="true" />
    <inkscape:path-effect
       effect="spiro"
       id="path-effect3822-1"
       is_visible="true" />
    <inkscape:path-effect
       effect="spiro"
       id="path-effect3762-3-2"
       is_visible="true" />
    <inkscape:path-effect
       effect="spiro"
       id="path-effect3762-7"
       is_visible="true" />
    <inkscape:path-effect
       effect="spiro"
       id="path-effect3905-6-7"
       is_visible="true" />
    <inkscape:path-effect
       effect="spiro"
       id="path-effect3834-2-9"
       is_visible="true" />
    <inkscape:path-effect
       effect="spiro"
       id="path-effect3830-9-2"
       is_visible="true" />
    <inkscape:path-effect
       effect="spiro"
       id="path-effect3822-1-0"
       is_visible="true" />
    <inkscape:path-effect
       effect="spiro"
       id="path-effect3762-3-2-2"
       is_visible="true" />
    <inkscape:path-effect
       effect="spiro"
       id="path-effect3762-7-3"
       is_visible="true" />
    <inkscape:path-effect
       effect="spiro"
       id="path-effect3834-2-9-7"
       is_visible="true" />
    <inkscape:path-effect
       effect="spiro"
       id="path-effect3830-9-2-5"
       is_visible="true" />
    <inkscape:path-effect
       effect="spiro"
       id="path-effect3822-1-0-9"
       is_visible="true" />
    <inkscape:path-effect
       effect="spiro"
       id="path-effect3762-3-2-2-2"
       is_visible="true" />
    <inkscape:path-effect
       effect="spiro"
       id="path-effect3762-7-3-2"
       is_visible="true" />
  </defs>
  <sodipodi:namedview
     id="base"
     pagecolor="#ffffff"
     bordercolor="#666666"
     borderopacity="1.0"
     inkscape:pageopacity="0.0"
     inkscape:pageshadow="2"
     inkscape:zoom="0.56568543"
     inkscape:cx="744.17791"
     inkscape:cy="276.33621"
     inkscape:document-units="px"
     inkscape:current-layer="layer1"
     showgrid="false"
     inkscape:snap-global="true"
     objecttolerance="10"
     gridtolerance="10"
     guidetolerance="10"
     inkscape:window-width="1366"
     inkscape:window-height="692"
     inkscape:window-x="0"
     inkscape:window-y="24"
     inkscape:window-maximized="1"
     fit-margin-top="0"
     fit-margin-left="0"
     fit-margin-right="0"
     fit-margin-bottom="0">
    <inkscape:grid
       type="xygrid"
       id="grid2986"
       empspacing="5"
       visible="true"
       enabled="true"
       snapvisiblegridlinesonly="true"
       originx="-58.828125px"
       originy="-377.58095px" />
  </sodipodi:namedview>
  <metadata
     id="metadata7">
    <rdf:RDF>
      <cc:Work
         rdf:about="">
        <dc:format>image/svg+xml</dc:format>
        <dc:type
           rdf:resource="http://purl.org/dc/dcmitype/StillImage" />
      </cc:Work>
    </rdf:RDF>
  </metadata>
  <g
     inkscape:groupmode="layer"
     id="layer1"
     inkscape:label="Chair-P"
     style="display:inline"
     transform="translate(-58.828125,-111.91076)"
     sodipodi:insensitive="true">
    <path
       style="fill:#dcdcdc;fill-opacity:1;stroke:#4b4b4b;stroke-width:4.09191513;stroke-linecap:butt;stroke-linejoin:miter;stroke-miterlimit:4;stroke-opacity:1;stroke-dasharray:none;display:inline"
       d="m 143.5,271.21932 0,200 c 25.36709,-26.63545 40,-63.21772 40,-100 0,-36.78228 -14.63291,-73.36455 -40,-100"
       id="path3760-0-8"
       inkscape:path-effect="#path-effect3762-7-3-2"
       inkscape:original-d="m 143.5,271.21932 0,200 c 0,0 50.77357,-21.84829 40,-100 -10.77356,-78.15171 -40,-100 -40,-100 z"
       inkscape:connector-curvature="0"
       sodipodi:nodetypes="ccsc" />
    <path
       style="fill:#dcdcdc;fill-opacity:1;stroke:#4b4b4b;stroke-width:4.82059669;stroke-linecap:butt;stroke-linejoin:miter;stroke-miterlimit:4;stroke-opacity:1;stroke-dasharray:none;display:inline"
       d="m 183.5,531.21932 200,0 c -26.63545,-25.36709 -63.21772,-40 -100,-40 -36.78228,0 -73.36455,14.63291 -100,40"
       id="path3760-6-9-9"
       inkscape:path-effect="#path-effect3762-3-2-2-2"
       inkscape:original-d="m 183.5,531.21932 200,0 c 0,0 -12.67966,-53.3823 -100,-40 -87.32035,13.3823 -100,40 -100,40 z"
       inkscape:connector-curvature="0"
       sodipodi:nodetypes="ccsc" />
    <path
       style="fill:none;stroke:#4b4b4b;stroke-width:5;stroke-linecap:butt;stroke-linejoin:round;stroke-miterlimit:4;stroke-opacity:1;stroke-dasharray:none;display:inline"
       d="m 203.5,531.21932 40,40 80,0 40,-40"
       id="path3820-3-7"
       inkscape:path-effect="#path-effect3822-1-0-9"
       inkscape:original-d="m 203.5,531.21932 40,40 80,0 40,-40"
       inkscape:connector-curvature="0"
       sodipodi:nodetypes="cccc" />
    <path
       style="fill:none;stroke:#4b4b4b;stroke-width:9.6693964;stroke-linecap:butt;stroke-linejoin:miter;stroke-miterlimit:4;stroke-opacity:1;stroke-dasharray:none;display:inline"
       d="m 283.5,571.21932 0,75"
       id="path3828-6-3"
       inkscape:path-effect="#path-effect3830-9-2-5"
       inkscape:original-d="m 283.5,571.21932 0,75"
       inkscape:connector-curvature="0"
       sodipodi:nodetypes="cc" />
    <path
       style="fill:none;stroke:#4b4b4b;stroke-width:10;stroke-linecap:butt;stroke-linejoin:miter;stroke-miterlimit:4;stroke-opacity:1;stroke-dasharray:none;display:inline"
       d="m 163.5,651.21932 20,-20 100,0 100,0 20,20"
       id="path3832-0-6"
       inkscape:path-effect="#path-effect3834-2-9-7"
       inkscape:original-d="m 163.5,651.21932 20,-20 100,0 100,0 20,20"
       inkscape:connector-curvature="0"
       sodipodi:nodetypes="ccccc" />
    <path
       sodipodi:type="arc"
       style="fill:#000000;fill-opacity:0.70588235;stroke:#4b4b4b;stroke-opacity:1;display:inline"
       id="path3876-6-1"
       sodipodi:cx="145"
       sodipodi:cy="707.36218"
       sodipodi:rx="10"
       sodipodi:ry="10"
       d="m 155,707.36218 a 10,10 0 1 1 -20,0 10,10 0 1 1 20,0 z"
       transform="translate(138.75636,-47.104801)" />
    <path
       transform="translate(267.22521,-46.850991)"
       sodipodi:type="arc"
       style="fill:#000000;fill-opacity:0.70588235;stroke:#4b4b4b;stroke-opacity:1;display:inline"
       id="path3876-3-2-2"
       sodipodi:cx="145"
       sodipodi:cy="707.36218"
       sodipodi:rx="10"
       sodipodi:ry="10"
       d="m 155,707.36218 a 10,10 0 1 1 -20,0 10,10 0 1 1 20,0 z" />
    <path
       transform="translate(9.507598,-46.850991)"
       sodipodi:type="arc"
       style="fill:#000000;fill-opacity:0.70588235;stroke:#4b4b4b;stroke-opacity:1;display:inline"
       id="path3876-5-6-9"
       sodipodi:cx="145"
       sodipodi:cy="707.36218"
       sodipodi:rx="10"
       sodipodi:ry="10"
       d="m 155,707.36218 a 10,10 0 1 1 -20,0 10,10 0 1 1 20,0 z" />
    <path
       style="font-size:medium;font-style:normal;font-variant:normal;font-weight:normal;font-stretch:normal;text-indent:0;text-align:start;text-decoration:none;line-height:normal;letter-spacing:normal;word-spacing:normal;text-transform:none;direction:ltr;block-progression:tb;writing-mode:lr-tb;text-anchor:start;baseline-shift:baseline;color:#000000;fill:#000000;fill-opacity:0.70588235;fill-rule:nonzero;stroke:none;stroke-width:10;marker:none;visibility:visible;display:inline;overflow:visible;enable-background:accumulate;font-family:Sans;-inkscape-font-specification:Sans"
       d="m 148.5,467.96679 -7,8 c 10.16363,34.26366 20.48845,47.18079 36,57.37881 l 7,-6.37881 c -19.86209,-15.64749 -32.18077,-32.65726 -36,-59 z"
       id="path3907-8-3"
       inkscape:connector-curvature="0"
       sodipodi:nodetypes="ccccc" />
  </g>
  <g
     inkscape:groupmode="layer"
     id="layer2"
     inkscape:label="Chair-Q"
     style="display:inline"
     transform="translate(-58.828125,-111.91076)"
     sodipodi:insensitive="true">
    <path
       style="fill:#dcdcdc;fill-opacity:1;stroke:#4b4b4b;stroke-width:4.09191513;stroke-linecap:butt;stroke-linejoin:miter;stroke-miterlimit:4;stroke-opacity:1;stroke-dasharray:none;display:inline"
       d="m 785.25068,270.36218 0,200 c -25.36709,-26.63545 -40,-63.21772 -40,-100 0,-36.78228 14.63291,-73.36455 40,-100"
       id="path3760-0"
       inkscape:path-effect="#path-effect3762-7-3"
       inkscape:original-d="m 785.25068,270.36218 0,200 c 0,0 -50.77357,-21.84829 -40,-100 10.77356,-78.15171 40,-100 40,-100 z"
       inkscape:connector-curvature="0"
       sodipodi:nodetypes="ccsc" />
    <path
       style="fill:#dcdcdc;fill-opacity:1;stroke:#4b4b4b;stroke-width:4.82059669;stroke-linecap:butt;stroke-linejoin:miter;stroke-miterlimit:4;stroke-opacity:1;stroke-dasharray:none;display:inline"
       d="m 745.25068,530.36218 -200,0 c 26.63545,-25.36709 63.21772,-40 100,-40 36.78228,0 73.36455,14.63291 100,40"
       id="path3760-6-9"
       inkscape:path-effect="#path-effect3762-3-2-2"
       inkscape:original-d="m 745.25068,530.36218 -200,0 c 0,0 12.67966,-53.3823 100,-40 87.32035,13.3823 100,40 100,40 z"
       inkscape:connector-curvature="0"
       sodipodi:nodetypes="ccsc" />
    <path
       style="fill:none;stroke:#4b4b4b;stroke-width:5;stroke-linecap:butt;stroke-linejoin:round;stroke-miterlimit:4;stroke-opacity:1;stroke-dasharray:none;display:inline"
       d="m 725.25068,530.36218 -40,40 -80,0 -40,-40"
       id="path3820-3"
       inkscape:path-effect="#path-effect3822-1-0"
       inkscape:original-d="m 725.25068,530.36218 -40,40 -80,0 -40,-40"
       inkscape:connector-curvature="0"
       sodipodi:nodetypes="cccc" />
    <path
       style="fill:none;stroke:#4b4b4b;stroke-width:9.6693964;stroke-linecap:butt;stroke-linejoin:miter;stroke-miterlimit:4;stroke-opacity:1;stroke-dasharray:none;display:inline"
       d="m 645.25068,570.36218 0,75"
       id="path3828-6"
       inkscape:path-effect="#path-effect3830-9-2"
       inkscape:original-d="m 645.25068,570.36218 0,75"
       inkscape:connector-curvature="0"
       sodipodi:nodetypes="cc" />
    <path
       style="fill:none;stroke:#4b4b4b;stroke-width:10;stroke-linecap:butt;stroke-linejoin:miter;stroke-miterlimit:4;stroke-opacity:1;stroke-dasharray:none;display:inline"
       d="m 765.25068,650.36218 -20,-20 -100,0 -100,0 -20,20"
       id="path3832-0"
       inkscape:path-effect="#path-effect3834-2-9"
       inkscape:original-d="m 765.25068,650.36218 -20,-20 -100,0 -100,0 -20,20"
       inkscape:connector-curvature="0"
       sodipodi:nodetypes="ccccc" />
    <path
       sodipodi:type="arc"
       style="fill:#000000;fill-opacity:0.70588235;stroke:#4b4b4b;stroke-opacity:1;display:inline"
       id="path3876-6"
       sodipodi:cx="145"
       sodipodi:cy="707.36218"
       sodipodi:rx="10"
       sodipodi:ry="10"
       d="m 155,707.36218 a 10,10 0 1 1 -20,0 10,10 0 1 1 20,0 z"
       transform="matrix(-1,0,0,1,789.99432,-47.961937)" />
    <path
       transform="matrix(-1,0,0,1,661.52547,-47.708127)"
       sodipodi:type="arc"
       style="fill:#000000;fill-opacity:0.70588235;stroke:#4b4b4b;stroke-opacity:1;display:inline"
       id="path3876-3-2"
       sodipodi:cx="145"
       sodipodi:cy="707.36218"
       sodipodi:rx="10"
       sodipodi:ry="10"
       d="m 155,707.36218 a 10,10 0 1 1 -20,0 10,10 0 1 1 20,0 z" />
    <path
       transform="matrix(-1,0,0,1,919.24308,-47.708127)"
       sodipodi:type="arc"
       style="fill:#000000;fill-opacity:0.70588235;stroke:#4b4b4b;stroke-opacity:1;display:inline"
       id="path3876-5-6"
       sodipodi:cx="145"
       sodipodi:cy="707.36218"
       sodipodi:rx="10"
       sodipodi:ry="10"
       d="m 155,707.36218 a 10,10 0 1 1 -20,0 10,10 0 1 1 20,0 z" />
    <path
       style="font-size:medium;font-style:normal;font-variant:normal;font-weight:normal;font-stretch:normal;text-indent:0;text-align:start;text-decoration:none;line-height:normal;letter-spacing:normal;word-spacing:normal;text-transform:none;direction:ltr;block-progression:tb;writing-mode:lr-tb;text-anchor:start;baseline-shift:baseline;color:#000000;fill:#000000;fill-opacity:0.70588235;fill-rule:nonzero;stroke:none;stroke-width:10;marker:none;visibility:visible;display:inline;overflow:visible;enable-background:accumulate;font-family:Sans;-inkscape-font-specification:Sans"
       d="m 780.25068,467.10965 7,8 c -10.16363,34.26366 -20.48845,47.18079 -36,57.37881 l -7,-6.37881 c 19.86209,-15.64749 32.18077,-32.65726 36,-59 z"
       id="path3907-8"
       inkscape:connector-curvature="0"
       sodipodi:nodetypes="ccccc" />
  </g>
  <g
     inkscape:groupmode="layer"
     id="layer5"
     inkscape:label="Person-P"
     transform="translate(-61.456248,34.235748)"
     sodipodi:insensitive="true">
    <path
       sodipodi:type="arc"
       style="color:#000000;fill:#ffffff;fill-opacity:1;fill-rule:nonzero;stroke:#000000;stroke-width:6.79704285;stroke-linecap:butt;stroke-linejoin:miter;stroke-miterlimit:4;stroke-opacity:1;stroke-dasharray:none;stroke-dashoffset:0;marker:none;visibility:visible;display:inline;overflow:visible;enable-background:accumulate"
       id="path4284"
       sodipodi:cx="252.62813"
       sodipodi:cy="186.21568"
       sodipodi:rx="30"
       sodipodi:ry="140"
       d="m 282.62813,186.21568 a 30,140 0 1 1 -60,0 30,140 0 1 1 60,0 z"
       transform="matrix(1.0382064,0,0,1.0215799,-40.902011,6.6064762)" />
    <path
       style="color:#000000;fill:#ffffff;fill-opacity:1;fill-rule:nonzero;stroke:#000000;stroke-width:7;stroke-linecap:butt;stroke-linejoin:miter;stroke-miterlimit:4;stroke-opacity:1;stroke-dasharray:none;stroke-dashoffset:0;marker:none;visibility:visible;display:inline;overflow:visible;enable-background:accumulate"
       d="m 372.09375,193.5625 c -21.18696,0.61003 -59.93357,21.00539 -98,53.1875 -48.72503,41.1931 -77.90616,86.10957 -65.1875,100.3125 12.71866,14.20293 62.52497,-7.6819 111.25,-48.875 30.72403,-25.9747 53.67012,-53.41967 63.25,-73.71875 8.53923,13.45341 22.93219,30.16684 40.8125,46.53125 33.8617,30.99089 67.3192,48.9575 74.71875,40.09375 7.39955,-8.86375 -14.04455,-41.19661 -47.90625,-72.1875 -26.8284,-24.55388 -53.37758,-40.89026 -66.9375,-42.21875 -2.81357,-2.26303 -6.894,-3.27202 -12,-3.125 z"
       id="path4280"
       inkscape:connector-curvature="0" />
    <path
       sodipodi:type="arc"
       style="color:#000000;fill:#ffffff;fill-opacity:1;fill-rule:nonzero;stroke:#000000;stroke-width:5.92349625;stroke-linecap:butt;stroke-linejoin:miter;stroke-miterlimit:4;stroke-opacity:1;stroke-dasharray:none;stroke-dashoffset:0;marker:none;visibility:visible;display:inline;overflow:visible;enable-background:accumulate"
       id="path4105-9"
       sodipodi:cx="500"
       sodipodi:cy="612.36218"
       sodipodi:rx="30"
       sodipodi:ry="10"
       d="m 530,612.36218 a 30,10 0 1 1 -60,0 30,10 0 1 1 60,0 z"
       transform="matrix(-0.7509457,0.91245661,0.91245661,0.7509457,331.59716,-622.1872)" />
    <path
       sodipodi:type="arc"
       style="color:#000000;fill:#ffffff;fill-opacity:1;fill-rule:nonzero;stroke:#000000;stroke-width:5.98401642;stroke-linecap:butt;stroke-linejoin:miter;stroke-miterlimit:4;stroke-opacity:1;stroke-dasharray:none;stroke-dashoffset:0;marker:none;visibility:visible;display:inline;overflow:visible;enable-background:accumulate"
       id="path4109-4"
       sodipodi:cx="712.85712"
       sodipodi:cy="197.36218"
       sodipodi:rx="24.285715"
       sodipodi:ry="47.857143"
       d="m 737.14283,197.36218 a 24.285715,47.857143 0 1 1 -48.57143,0 24.285715,47.857143 0 1 1 48.57143,0 z"
       transform="matrix(-1.2832424,0,0,1.0663551,1143.7608,-190.45677)" />
    <path
       style="color:#000000;fill:#ffffff;fill-opacity:1;fill-rule:nonzero;stroke:#000000;stroke-width:6.90099239;stroke-linecap:butt;stroke-linejoin:miter;stroke-miterlimit:4;stroke-opacity:1;stroke-dasharray:none;stroke-dashoffset:0;marker:none;visibility:visible;display:inline;overflow:visible;enable-background:accumulate"
       d="m 222,86.15625 c -10.72786,0 -19.40625,31.37523 -19.40625,70.0625 0,38.68727 8.67839,70.03125 19.40625,70.03125 0.44052,0 0.87929,-0.0522 1.3125,-0.15625 9.97588,4.82314 30.09529,8.125 53.3125,8.125 33.13708,0 60,-6.71573 60,-15 0,-8.28427 -26.86292,-15 -60,-15 -16.20653,0 -30.89102,1.60816 -41.6875,4.21875 3.97766,-12.82719 6.5,-31.46124 6.5,-52.21875 0,-38.68727 -8.70964,-70.0625 -19.4375,-70.0625 z"
       id="path4286"
       inkscape:connector-curvature="0" />
    <path
       sodipodi:type="arc"
       style="color:#000000;fill:#ffffff;fill-opacity:1;fill-rule:nonzero;stroke:#000000;stroke-width:7.00000048;stroke-linecap:butt;stroke-linejoin:miter;stroke-miterlimit:4;stroke-opacity:1;stroke-dasharray:none;stroke-dashoffset:0;marker:none;visibility:visible;display:inline;overflow:visible;enable-background:accumulate"
       id="path4292"
       sodipodi:cx="357.62811"
       sodipodi:cy="226.21568"
       sodipodi:rx="15"
       sodipodi:ry="10"
       d="m 372.62811,226.21568 a 15,10 0 1 1 -30,0 15,10 0 1 1 30,0 z"
       transform="translate(-8,-6)" />
  </g>
  <g
     inkscape:groupmode="layer"
     id="layer3"
     inkscape:label="Person-Q"
     transform="translate(-58.828125,-111.91076)"
     sodipodi:insensitive="true">
    <path
       style="fill:#ffffff;fill-opacity:1;stroke:#000000;stroke-width:7.16093922;stroke-linecap:butt;stroke-linejoin:miter;stroke-miterlimit:4;stroke-opacity:1;stroke-dasharray:none"
       d="m 716.125,222.3125 c -13.8418,0 -25.0625,55.99222 -25.0625,125.0625 0,40.52089 3.85633,76.52114 9.84375,99.375 -19.70126,-4.99503 -48.39063,-8.15625 -80.34375,-8.15625 -59.4026,0 -107.5625,10.87869 -107.5625,24.28125 0,0.2819 0.0202,0.56417 0.0625,0.84375 -4.82637,12.46454 -8.125,37.65407 -8.125,66.6875 0,41.42136 6.71573,75 15,75 8.28427,0 15,-33.57864 15,-75 0,-21.42736 -1.7745,-40.70773 -4.65625,-54.375 19.16903,6.66866 52.4291,11.09375 90.28125,11.09375 59.4026,0 107.5625,-10.84744 107.5625,-24.25 0,-1.1014 -0.33877,-2.18733 -0.96875,-3.25 8.29944,-20.38113 14.03125,-62.97394 14.03125,-112.25 0,-69.07028 -11.2207,-125.0625 -25.0625,-125.0625 z"
       id="path4099"
       inkscape:connector-curvature="0" />
    <path
       sodipodi:type="arc"
       style="color:#000000;fill:#ffffff;fill-opacity:1;fill-rule:nonzero;stroke:#000000;stroke-width:7.00000048;stroke-linecap:butt;stroke-linejoin:miter;stroke-miterlimit:4;stroke-opacity:1;stroke-dasharray:none;stroke-dashoffset:0;marker:none;visibility:visible;display:inline;overflow:visible;enable-background:accumulate"
       id="path4105"
       sodipodi:cx="500"
       sodipodi:cy="612.36218"
       sodipodi:rx="30"
       sodipodi:ry="10"
       d="m 530,612.36218 a 30,10 0 1 1 -60,0 30,10 0 1 1 60,0 z"
       transform="translate(2,-4)" />
    <path
       sodipodi:type="arc"
       style="color:#000000;fill:#ffffff;fill-opacity:1;fill-rule:nonzero;stroke:#000000;stroke-width:7.00000048;stroke-linecap:butt;stroke-linejoin:miter;stroke-miterlimit:4;stroke-opacity:1;stroke-dasharray:none;stroke-dashoffset:0;marker:none;visibility:visible;display:inline;overflow:visible;enable-background:accumulate"
       id="path4109"
       sodipodi:cx="712.85712"
       sodipodi:cy="197.36218"
       sodipodi:rx="24.285715"
       sodipodi:ry="47.857143"
       d="m 737.14283,197.36218 a 24.285715,47.857143 0 1 1 -48.57143,0 24.285715,47.857143 0 1 1 48.57143,0 z"
       transform="matrix(1.0826143,0,0,0.99714758,-61.035076,0.56296066)" />
    <path
       style="color:#000000;fill:#ffffff;fill-opacity:1;fill-rule:nonzero;stroke:#000000;stroke-width:7;stroke-linecap:butt;stroke-linejoin:miter;stroke-miterlimit:4;stroke-opacity:1;stroke-dasharray:none;stroke-dashoffset:0;marker:none;visibility:visible;display:inline;overflow:visible;enable-background:accumulate"
       d="m 715,261.125 c -8.36218,0.56018 -23.78247,22.92013 -35.6875,52.3125 -8.73036,21.5544 -13.29788,41.27995 -12.75,52.34375 5.4e-4,0.0109 -5.5e-4,0.0204 0,0.0312 -6.95998,6.16028 -16.15,20.01216 -24.03125,37.1875 -11.51673,25.09803 -15.90774,47.73433 -9.8125,50.53125 6.09524,2.79692 20.35827,-15.27697 31.875,-40.375 7.28807,-15.88265 11.73838,-30.78098 12.46875,-40.28125 8.66962,-6.31409 20.89586,-25.82733 30.75,-50.15625 12.6987,-31.35186 16.61902,-58.83583 8.75,-61.40625 -0.49181,-0.16065 -1.00502,-0.22485 -1.5625,-0.1875 z"
       id="path4111"
       inkscape:connector-curvature="0" />
    <path
       sodipodi:type="arc"
       style="color:#000000;fill:#ffffff;fill-opacity:1;fill-rule:nonzero;stroke:#000000;stroke-width:7.00000048;stroke-linecap:butt;stroke-linejoin:miter;stroke-miterlimit:4;stroke-opacity:1;stroke-dasharray:none;stroke-dashoffset:0;marker:none;visibility:visible;display:inline;overflow:visible;enable-background:accumulate"
       id="path4115"
       sodipodi:cx="621.42859"
       sodipodi:cy="450.93362"
       sodipodi:rx="17.142857"
       sodipodi:ry="8.5714283"
       d="m 638.57145,450.93362 a 17.142857,8.5714283 0 1 1 -34.28572,0 17.142857,8.5714283 0 1 1 34.28572,0 z" />
    <path
       style="fill:none;stroke:#000000;stroke-width:7;stroke-miterlimit:4;stroke-opacity:1;stroke-dasharray:none"
       d="m 701.42857,444.86218 c 0,0 21.97842,17.39501 27.50001,8.92857"
       id="path4122"
       inkscape:connector-curvature="0"
       sodipodi:nodetypes="cc" />
  </g>
  <g
     inkscape:groupmode="layer"
     id="layer4"
     inkscape:label="Floor"
     transform="translate(-58.828125,-111.91076)"
     sodipodi:insensitive="true">
    <path
       style="fill:none;stroke:#000000;stroke-width:4.81917;stroke-linecap:round;stroke-linejoin:round;stroke-miterlimit:4;stroke-opacity:1;stroke-dasharray:none"
       d="m 61.254604,672.36218 798.919366,0"
       id="path4125"
       inkscape:connector-curvature="0" />
  </g>
</svg>
