<?xml version="1.0" encoding="UTF-8" standalone="no"?>
<!-- Created with Inkscape (http://www.inkscape.org/) -->

<svg
   xmlns:dc="http://purl.org/dc/elements/1.1/"
   xmlns:cc="http://creativecommons.org/ns#"
   xmlns:rdf="http://www.w3.org/1999/02/22-rdf-syntax-ns#"
   xmlns:svg="http://www.w3.org/2000/svg"
   xmlns="http://www.w3.org/2000/svg"
   xmlns:sodipodi="http://sodipodi.sourceforge.net/DTD/sodipodi-0.dtd"
   xmlns:inkscape="http://www.inkscape.org/namespaces/inkscape"
   width="227.59749pt"
   height="257.97824pt"
   viewBox="0 0 80.291342 91.008991"
   version="1.1"
   id="svg8"
   inkscape:version="0.92.2 5c3e80d, 2017-08-06"
   sodipodi:docname="person-top.svg">
  <defs
     id="defs2">
    <inkscape:path-effect
       effect="skeletal"
       id="path-effect4512"
       is_visible="true"
       pattern="M 0,0 H 1"
       copytype="single_stretched"
       prop_scale="1"
       scale_y_rel="false"
       spacing="0"
       normal_offset="0"
       tang_offset="0"
       prop_units="false"
       vertical_pattern="false"
       fuse_tolerance="0" />
  </defs>
  <sodipodi:namedview
     id="base"
     pagecolor="#ffffff"
     bordercolor="#666666"
     borderopacity="1.0"
     inkscape:pageopacity="0.0"
     inkscape:pageshadow="2"
     inkscape:zoom="1.4"
     inkscape:cx="-11.114833"
     inkscape:cy="123.13457"
     inkscape:document-units="mm"
     inkscape:current-layer="layer1"
     showgrid="false"
     fit-margin-top="0"
     fit-margin-left="0"
     fit-margin-right="0"
     fit-margin-bottom="0"
     inkscape:window-width="1598"
     inkscape:window-height="879"
     inkscape:window-x="0"
     inkscape:window-y="19"
     inkscape:window-maximized="0"
     units="pt"
     scale-x="0.25" />
  <metadata
     id="metadata5">
    <rdf:RDF>
      <cc:Work
         rdf:about="">
        <dc:format>image/svg+xml</dc:format>
        <dc:type
           rdf:resource="http://purl.org/dc/dcmitype/StillImage" />
        <dc:title />
      </cc:Work>
    </rdf:RDF>
  </metadata>
  <g
     inkscape:groupmode="layer"
     id="layer3"
     inkscape:label="Layer 3"
     style="display:inline"
     transform="translate(-67.481824,-115.52815)" />
  <g
     inkscape:groupmode="layer"
     id="layer2"
     inkscape:label="Layer 2"
     style="display:inline"
     transform="translate(-67.481824,-115.52815)" />
  <g
     inkscape:label="Layer 1"
     inkscape:groupmode="layer"
     id="layer1"
     style="display:inline"
     transform="translate(-67.481824,-115.52815)">
    <path
       style="display:inline;opacity:1;fill:#ffffff;fill-opacity:1;stroke:#000000;stroke-width:1.41111111;stroke-miterlimit:4;stroke-dasharray:none"
       d="m 88.052301,116.11935 a 21.507453,6.5897721 36.180865 0 0 -2.848599,1.09937 21.507453,6.5897721 36.180865 0 0 13.589914,18.05745 21.507453,6.5897721 36.180865 0 0 18.489584,8.36208 13.819283,4.5271365 33.262798 0 0 7.16277,6.13664 13.819283,4.5271365 33.262798 0 0 12.19798,4.66417 6.0689473,2.9298367 32.352007 0 0 3.60445,3.90469 6.0689473,2.9298367 32.352007 0 0 6.69461,0.77284 6.0689473,2.9298367 32.352007 0 0 -3.55913,-5.72269 6.0689473,2.9298367 32.352007 0 0 -4.7617,-1.60316 13.819283,4.5271365 33.262798 0 0 -9.21019,-9.58649 13.819283,4.5271365 33.262798 0 0 -10.12627,-4.52174 21.507453,6.5897721 36.180865 0 0 -12.90893,-13.18812 21.507453,6.5897721 36.180865 0 0 -18.324489,-8.37504 z"
       id="path4533"
       inkscape:connector-curvature="0" />
    <path
       inkscape:connector-curvature="0"
       style="display:inline;opacity:1;fill:#ffffff;fill-opacity:1;stroke:#000000;stroke-width:1.41111111;stroke-miterlimit:4;stroke-dasharray:none"
       d="m 87.997431,205.94626 a 6.5897721,21.507453 53.819135 0 1 -2.848598,-1.09938 6.5897721,21.507453 53.819135 0 1 13.589912,-18.05743 6.5897721,21.507453 53.819135 0 1 18.489585,-8.3621 4.5271365,13.819283 56.737202 0 1 7.16277,-6.13661 4.5271365,13.819283 56.737202 0 1 12.19798,-4.66419 2.9298367,6.0689473 57.647993 0 1 3.60445,-3.90467 2.9298367,6.0689473 57.647993 0 1 6.69461,-0.77284 2.9298367,6.0689473 57.647993 0 1 -3.55914,5.72267 2.9298367,6.0689473 57.647993 0 1 -4.76167,1.60315 4.5271365,13.819283 56.737202 0 1 -9.2102,9.58651 4.5271365,13.819283 56.737202 0 1 -10.12628,4.52173 6.5897721,21.507453 53.819135 0 1 -12.90892,13.18813 6.5897721,21.507453 53.819135 0 1 -18.324499,8.37503 z"
       id="path4533-7" />
    <ellipse
       style="display:inline;opacity:1;fill:#ffffff;fill-opacity:1;stroke:#000000;stroke-width:1.41111111;stroke-miterlimit:4;stroke-dasharray:none"
       id="path4515"
       cx="87.051872"
       cy="139.85229"
       rx="10.88225"
       ry="20.718128" />
    <ellipse
       style="display:inline;opacity:1;fill:#ffffff;fill-opacity:1;stroke:#000000;stroke-width:1.41111111;stroke-miterlimit:4;stroke-dasharray:none"
       id="path4515-3"
       cx="87.051872"
       cy="182.33493"
       rx="10.88225"
       ry="20.71813" />
    <ellipse
       style="opacity:1;fill:#ffffff;fill-opacity:1;stroke:#000000;stroke-width:1.41111111;stroke-miterlimit:4;stroke-dasharray:none"
       id="path4504"
       cx="89.11937"
       cy="162.81516"
       rx="21.085093"
       ry="14.654889" />
    <text
       xml:space="preserve"
       style="font-style:normal;font-weight:normal;font-size:9.87777805px;line-height:125%;font-family:sans-serif;letter-spacing:0px;word-spacing:0px;fill:#000000;fill-opacity:1;stroke:none;stroke-width:0.26458332px;stroke-linecap:butt;stroke-linejoin:miter;stroke-opacity:1"
       x="80.715393"
       y="242.47701"
       id="text4508"><tspan
         sodipodi:role="line"
         id="tspan4506"
         x="80.715393"
         y="251.21652"
         style="font-size:9.87777805px;stroke-width:0.26458332px" /></text>
  </g>
</svg>
