<?xml version="1.0" encoding="UTF-8" standalone="no"?>
<!-- Created with Inkscape (http://www.inkscape.org/) -->

<svg
   xmlns:dc="http://purl.org/dc/elements/1.1/"
   xmlns:cc="http://creativecommons.org/ns#"
   xmlns:rdf="http://www.w3.org/1999/02/22-rdf-syntax-ns#"
   xmlns:svg="http://www.w3.org/2000/svg"
   xmlns="http://www.w3.org/2000/svg"
   xmlns:sodipodi="http://sodipodi.sourceforge.net/DTD/sodipodi-0.dtd"
   xmlns:inkscape="http://www.inkscape.org/namespaces/inkscape"
   width="402.67856"
   height="715.50446"
   id="svg2"
   version="1.1"
   inkscape:version="0.48.4 r9939"
   sodipodi:docname="person-swing.svg">
  <defs
     id="defs4" />
  <sodipodi:namedview
     id="base"
     pagecolor="#ffffff"
     bordercolor="#666666"
     borderopacity="1.0"
     inkscape:pageopacity="0"
     inkscape:pageshadow="2"
     inkscape:zoom="0.7"
     inkscape:cx="-5.3115093"
     inkscape:cy="528.19654"
     inkscape:document-units="px"
     inkscape:current-layer="layer1"
     showgrid="false"
     inkscape:window-width="1366"
     inkscape:window-height="692"
     inkscape:window-x="0"
     inkscape:window-y="24"
     inkscape:window-maximized="1"
     fit-margin-top="0"
     fit-margin-left="0"
     fit-margin-right="0"
     fit-margin-bottom="0" />
  <metadata
     id="metadata7">
    <rdf:RDF>
      <cc:Work
         rdf:about="">
        <dc:format>image/svg+xml</dc:format>
        <dc:type
           rdf:resource="http://purl.org/dc/dcmitype/StillImage" />
        <dc:title />
      </cc:Work>
    </rdf:RDF>
  </metadata>
  <g
     inkscape:label="Layer 1"
     inkscape:groupmode="layer"
     id="layer1"
     transform="translate(-137.93304,-105.75)">
    <path
       sodipodi:type="arc"
       style="fill:#ffffff;fill-opacity:1;stroke:#000000;stroke-width:7.5;stroke-miterlimit:4;stroke-opacity:1;stroke-dasharray:none"
       id="path2989"
       sodipodi:cx="195.71428"
       sodipodi:cy="178.07646"
       sodipodi:rx="50"
       sodipodi:ry="68.571426"
       d="m 245.71428,178.07646 a 50,68.571426 0 1 1 -100,0 50,68.571426 0 1 1 100,0 z"
       transform="matrix(0.63716301,0,0,0.72039439,186.44634,33.625416)" />
    <path
       sodipodi:type="arc"
       style="fill:#ffffff;fill-opacity:1;stroke:#000000;stroke-width:7.5;stroke-miterlimit:4;stroke-opacity:1;stroke-dasharray:none"
       id="path3761"
       sodipodi:cx="188.57143"
       sodipodi:cy="372.36218"
       sodipodi:rx="34.285713"
       sodipodi:ry="148.57143"
       d="m 222.85714,372.36218 a 34.285713,148.57143 0 1 1 -68.57143,0 34.285713,148.57143 0 1 1 68.57143,0 z"
       transform="matrix(0.63716301,0,0,0.72039439,188.6309,39.388571)" />
    <path
       style="fill:#ffffff;fill-opacity:1;stroke:#000000;stroke-width:5.69242764;stroke-miterlimit:4;stroke-opacity:1;stroke-dasharray:none"
       d="M 334.5625 70.03125 C 325.08811 70.028342 308.32486 76.508947 291.46875 87.3125 C 277.7004 96.137022 267.06433 105.78507 262.0625 113.34375 C 255.12601 107.0124 239.62635 102.59375 221.625 102.59375 C 197.15104 102.59375 177.3125 110.72994 177.3125 120.78125 C 177.3125 130.83256 197.15104 139 221.625 139 C 241.29923 139 257.99566 133.72443 263.78125 126.4375 C 272.37533 128.1234 291.06378 121.44286 309.84375 109.40625 C 332.31856 95.001512 346.41653 78.378415 341.34375 72.28125 C 340.07556 70.756959 337.72063 70.032219 334.5625 70.03125 z "
       transform="translate(137.93304,105.75)"
       id="path3763" />
    <path
       style="fill:#ffffff;fill-opacity:1;stroke:#000000;stroke-width:6.43280029;stroke-miterlimit:4;stroke-opacity:1;stroke-dasharray:none"
       d="M 183.625 294.3125 C 174.44471 294.58598 167.90913 297.47262 165.8125 303.03125 C 161.0202 315.73669 181.23465 337.66333 210.96875 352 C 232.97342 362.60983 254.00742 366.08732 265.40625 362.03125 C 269.601 379.19641 282.19047 406.94602 299.8125 436.21875 C 326.40108 480.38621 354.35398 511.26382 362.25 505.1875 C 370.14602 499.11118 354.99483 458.38621 328.40625 414.21875 C 307.379 379.28946 285.51432 352.69534 273.375 346.09375 C 269.53437 333.55362 251.93547 317.39012 228.3125 306 C 211.58707 297.93562 195.42823 293.96088 183.625 294.3125 z "
       transform="translate(137.93304,105.75)"
       id="path3767" />
    <path
       sodipodi:type="arc"
       style="fill:#ffffff;fill-opacity:1;stroke:#000000;stroke-width:7.5;stroke-miterlimit:4;stroke-opacity:1;stroke-dasharray:none"
       id="path3771"
       sodipodi:cx="462.85715"
       sodipodi:cy="166.6479"
       sodipodi:rx="14.285714"
       sodipodi:ry="17.142857"
       d="m 477.14286,166.6479 a 14.285714,17.142857 0 1 1 -28.57143,0 14.285714,17.142857 0 1 1 28.57143,0 z"
       transform="matrix(0.34700737,0.60418568,-0.53438057,0.39233627,411.62082,-170.77334)" />
    <path
       sodipodi:type="arc"
       style="fill:#ffffff;fill-opacity:1;stroke:#000000;stroke-width:7.5;stroke-miterlimit:4;stroke-opacity:1;stroke-dasharray:none"
       id="path3773"
       sodipodi:cx="574.28571"
       sodipodi:cy="700.93359"
       sodipodi:rx="31.428572"
       sodipodi:ry="14.285714"
       d="m 605.71428,700.93359 a 31.428572,14.285714 0 1 1 -62.85715,0 31.428572,14.285714 0 1 1 62.85715,0 z"
       transform="matrix(0.63716301,0,0,0.72039439,142.57312,107.31147)" />
    <rect
       style="fill:#000000;fill-opacity:1;stroke:#000000;stroke-width:4.88661814;stroke-miterlimit:4;stroke-opacity:1;stroke-dasharray:none"
       id="rect3775"
       width="132.188"
       height="20.448465"
       x="418.24487"
       y="261.2016"
       transform="matrix(0.90076171,0.43431365,-0.35291488,0.93565543,0,0)" />
  </g>
</svg>
