<?xml version="1.0" encoding="UTF-8" standalone="no"?>
<!-- Generator: Adobe Illustrator 18.1.1, SVG Export Plug-In . SVG Version: 6.00 Build 0)  -->

<svg
   xmlns:dc="http://purl.org/dc/elements/1.1/"
   xmlns:cc="http://creativecommons.org/ns#"
   xmlns:rdf="http://www.w3.org/1999/02/22-rdf-syntax-ns#"
   xmlns:svg="http://www.w3.org/2000/svg"
   xmlns="http://www.w3.org/2000/svg"
   xmlns:sodipodi="http://sodipodi.sourceforge.net/DTD/sodipodi-0.dtd"
   xmlns:inkscape="http://www.inkscape.org/namespaces/inkscape"
   version="1.1"
   id="Capa_1"
   x="0px"
   y="0px"
   viewBox="0 0 511.24339 185.625"
   xml:space="preserve"
   inkscape:version="0.48.4 r9939"
   width="100%"
   height="100%"
   sodipodi:docname="plane.svg"><metadata
     id="metadata47"><rdf:RDF><cc:Work
         rdf:about=""><dc:format>image/svg+xml</dc:format><dc:type
           rdf:resource="http://purl.org/dc/dcmitype/StillImage" /></cc:Work></rdf:RDF></metadata><defs
     id="defs45"><inkscape:path-effect
       effect="spiro"
       id="path-effect3030"
       is_visible="true" /></defs><sodipodi:namedview
     pagecolor="#ffffff"
     bordercolor="#666666"
     borderopacity="1"
     objecttolerance="10"
     gridtolerance="10"
     guidetolerance="10"
     inkscape:pageopacity="0"
     inkscape:pageshadow="2"
     inkscape:window-width="1366"
     inkscape:window-height="692"
     id="namedview43"
     showgrid="false"
     inkscape:snap-global="false"
     inkscape:zoom="1.3056509"
     inkscape:cx="365.49877"
     inkscape:cy="83.805695"
     inkscape:window-x="0"
     inkscape:window-y="24"
     inkscape:window-maximized="1"
     inkscape:current-layer="Capa_1"
     fit-margin-top="0"
     fit-margin-left="0"
     fit-margin-right="0"
     fit-margin-bottom="0" /><g
     id="g3801"
     transform="translate(0,-162.811)"><g
       id="g3"><g
         id="g5"><path
           id="path7"
           d="m 470.555,255.631 c -2.78,-0.528 -5.609,-1.91 -8.234,-3.536 -1.845,-0.325 -3.885,-0.715 -6.056,-1.016 -1.707,-0.236 -3.463,-0.431 -5.308,-0.431 h -6.405 -21.362 c -11.697,0 -21.175,-9.478 -21.175,-21.175 0,-6.739 5.901,-7.299 13.095,-6.6 -10.9,-3.568 -21.622,-5.657 -28.954,-5.657 h -74.498 l -45.78,-30.108 h -41.976 l 16.989,30.108 H 96.486 L 71.816,193.83 65.695,183.157 59.168,181.84 39.099,162.811 H 0 l 1.78,5.406 16.249,36.107 1.057,-1.032 1.423,1.455 1.423,1.455 -2.122,2.073 -18.713,18.321 h 21.484 l 4.487,-2.195 40.123,-19.647 3.731,-1.829 1.796,3.65 -43.984,21.533 9.852,21.874 15.452,34.132 c 8.787,-10.64 45.813,-16.33 80.993,-16.363 0,0 0.008,0 0.016,0 0,0 0.008,0 0.016,0 0.081,0 0.163,0 0.236,0 h 2.032 v 0.496 c 4.763,2.024 8.129,10.275 8.129,20.785 0,1.894 -0.146,3.682 -0.35,5.406 h 56.672 l -67.101,53.998 h 56.859 l 117.157,-53.998 h 97.51 12.469 c 0.333,0 0.642,-0.089 0.975,-0.098 16.216,-0.293 18.59,-1.284 51.243,-3.219 39.968,-2.374 40.301,-14.225 40.301,-14.225 0.678,-5.422 -5.419,-14.567 -40.64,-21.265 z M 188.136,250.656 H 158.67 l 4.064,-15.241 H 192.2 l -4.064,15.241 z m 48.771,0 h -29.466 l 4.064,-15.241 h 29.466 l -4.064,15.241 z m 48.772,0 h -29.466 l 4.064,-15.241 h 29.466 l -4.064,15.241 z m 48.771,0 h -29.466 l 4.064,-15.241 h 29.466 l -4.064,15.241 z"
           style="fill:#010002"
           inkscape:connector-curvature="0" /><path
           id="path9"
           d="m 56.185,288.861 c 0,0.057 -0.041,0.114 -0.041,0.171 0,1.024 0.528,2.065 1.52,3.097 0.74,0.772 1.821,1.544 3.089,2.309 9.827,5.909 34.88,11.12 68.02,11.738 -1.87,-2.812 -3.211,-6.885 -3.796,-11.738 -0.203,-1.723 -0.35,-3.512 -0.35,-5.406 0,-7.218 1.609,-13.323 4.146,-17.127 -42.789,0.788 -72.157,9.242 -72.588,16.956 z"
           style="fill:#010002"
           inkscape:connector-curvature="0" /><path
           id="path11"
           d="m 133.268,305.305 c 0.618,0.585 1.227,0.951 1.78,0.951 0.081,0 0.171,-0.065 0.252,-0.081 0.642,-0.098 1.341,-0.577 2.032,-1.414 1.544,-1.87 3.008,-5.471 3.674,-10.331 0.228,-1.674 0.39,-3.447 0.39,-5.406 0,-7.633 -1.983,-13.217 -4.064,-15.729 -0.691,-0.837 -1.39,-1.309 -2.032,-1.414 -0.081,-0.016 -0.171,-0.073 -0.252,-0.073 -0.553,0 -1.162,0.366 -1.78,0.951 -2.252,2.154 -4.576,8.007 -4.576,16.265 0,1.959 0.163,3.731 0.39,5.406 0.739,5.404 2.471,9.233 4.186,10.875 z"
           style="fill:#010002"
           inkscape:connector-curvature="0" /></g></g><g
       id="g13" /><g
       id="g15" /><g
       id="g17" /><g
       id="g19" /><g
       id="g21" /><g
       id="g23" /><g
       id="g25" /><g
       id="g27" /><g
       id="g29" /><g
       id="g31" /><g
       id="g33" /><g
       id="g35" /><g
       id="g37" /><g
       id="g39" /><g
       id="g41" /><path
       sodipodi:nodetypes="cc"
       inkscape:connector-curvature="0"
       id="path3028"
       d="m 463.22378,254.16933 c 0,0 -36.61171,-28.85182 -56.53144,-32.50788"
       style="fill:none;stroke:#000000;stroke-width:2.5;stroke-linecap:butt;stroke-linejoin:miter;stroke-miterlimit:4;stroke-opacity:1;stroke-dasharray:none" /></g></svg>